<?xml version="1.0" encoding="utf-8"?>
<!-- Generator: Adobe Illustrator 21.1.0, SVG Export Plug-In . SVG Version: 6.00 Build 0)  -->
<svg version="1.1" xmlns="http://www.w3.org/2000/svg" xmlns:xlink="http://www.w3.org/1999/xlink" x="0px" y="0px"
	 viewBox="0 0 1136 201" style="enable-background:new 0 0 1136 201;" xml:space="preserve">
<style type="text/css">
	.st0{fill:#FFFFFF;}
	.st1{fill:#E8F0FE;}
	.st2{fill:#D5E4FD;}
	.st3{fill:url(#SVGID_1_);}
	.st4{fill:#C2D8FB;}
	.st5{fill:url(#SVGID_2_);}
	.st6{fill:url(#SVGID_3_);}
	.st7{fill:url(#SVGID_4_);}
	.st8{fill:#AECBFA;}
	.st9{fill:#91B9F8;}
	.st10{fill:#804B4B;}
	.st11{clip-path:url(#XMLID_3_);fill:#3E8F25;}
</style>
<g id="Layer_5">
	<rect x="-172" y="-411" class="st0" width="1560" height="1039"/>
</g>
<g id="Layer_4">
	<rect class="st1" width="1136" height="181"/>
	<g>
		<path class="st0" d="M305.7,104.6c1.3-7,6.9-13,13.8-14.7c4.2-1.1,8.7-0.5,12.6,1.3c3.6,1.7,7.9,0.7,10.4-2.5
			c4.4-5.8,11.4-9.7,18.6-9.8c10-0.1,19.6,7,22.5,16.6c-13.8,15.9-36.7,25.3-57.5,22C318.7,116.3,310.2,110.6,305.7,104.6z"/>
		<path class="st0" d="M465.7,83.2c2.4-6.6,9.6-11.9,17.8-12.9c5.8-0.7,11.9,0.7,16.6,3.6c2.9,1.8,6.5,1.6,9.3-0.3
			c2.8-1.9,6.4-2.9,10.4-3.1c3.1-0.2,6.2,0.3,9,1.4c4.1,1.6,8.7-0.2,10.7-4c3-6,8.1-11.2,15-14.6c10.3-5.2,24.9-8.7,41.4-2.5
			c-2.4,16.8-14.4,35.8-30.1,46.5c-10.2,6.9-23.6,9.1-36.5,11.1c-9.8,1.5-20,3-29.4,0.4C485.6,104.9,472.8,94.1,465.7,83.2z"/>
		<path class="st0" d="M735.6,71.7c4.7-4.7,12-6.6,18.4-4.8c3.3,0.9,6.3,2.8,8.7,5.3c3,3.1,7.8,3.6,11.2,1c5-3.6,11.3-5.1,17.6-3.7
			c7,1.5,13.1,6.6,16.3,13c1.6,3.2,5,5.1,8.6,4.7c1.9-0.2,4,0.1,6.3,0.8c4.8,1.5,8.8,5.7,10.1,10.6c-7.5,9.7-21,14.9-33.2,15.6
			c-4.7,0.3-9.5-0.2-14.1-1.4C764.6,107.7,749.4,88.3,735.6,71.7z"/>
		<circle class="st0" cx="515.4" cy="54.2" r="6.8"/>
	</g>
</g>
<g id="Layer_2">
	<g>
		<g>
			<path class="st2" d="M353.3,105.8l3.7-13.7c0.2-0.6,1-0.7,1.3,0l4.6,13.7H353.3z"/>
			<path class="st2" d="M283.3,94.7l3.7-13.7c0.2-0.6,1-0.7,1.3,0l4.6,13.7H283.3z"/>
			<path class="st2" d="M361.2,105.8l3.7-13.7c0.2-0.6,1-0.7,1.3,0l4.6,13.7H361.2z"/>
		</g>
		<linearGradient id="SVGID_1_" gradientUnits="userSpaceOnUse" x1="407.1984" y1="215.4237" x2="407.1984" y2="59.8811">
			<stop  offset="0" style="stop-color:#E8F0FE"/>
			<stop  offset="1" style="stop-color:#D5E4FD"/>
		</linearGradient>
		<path class="st3" d="M227.9,119.9l43.8-27.5c10.6-6.7,24.2-6,34.1,1.7l11.5,8.9c11.3,8.8,27.1,9.2,38.8,0.8l45.8-32.7
			c18.1-12.9,42.6-12.5,60.2,1.1l124.5,96.3l-330.6-11.2L227.9,119.9z"/>
		<path class="st4" d="M719.5,72.2L726,48c0.3-1.1,1.8-1.2,2.2-0.1l8.2,24.2H719.5z"/>
		<path class="st4" d="M519.2,111l6.6-24.2c0.3-1.1,1.8-1.2,2.2-0.1l8.2,24.2H519.2z"/>
		<path class="st4" d="M730.7,84.5l6.6-24.2c0.3-1.1,1.8-1.2,2.2-0.1l8.2,24.2H730.7z"/>
		<linearGradient id="SVGID_2_" gradientUnits="userSpaceOnUse" x1="674.5009" y1="28.3759" x2="674.5009" y2="140.3331">
			<stop  offset="0" style="stop-color:#C2D8FB"/>
			<stop  offset="0.2762" style="stop-color:#C8DCFC"/>
			<stop  offset="0.9994" style="stop-color:#D5E4FD"/>
		</linearGradient>
		<path class="st5" d="M916.5,122.9L873,87.5c-12.2-10-29.6-10.7-42.6-1.8l-21.7,14.9c-9.8,6.7-22.8,6.5-32.3-0.5l-75.2-55.2
			c-33-24.3-78.3-23.3-110.3,2.3L432.5,173.9h465.2L916.5,122.9z"/>
	</g>
	<linearGradient id="SVGID_3_" gradientUnits="userSpaceOnUse" x1="175.9934" y1="159.061" x2="175.9934" y2="63.9878">
		<stop  offset="0" style="stop-color:#E8F0FE"/>
		<stop  offset="1" style="stop-color:#D5E4FD"/>
	</linearGradient>
	<path class="st6" d="M30.2,158.9L161,68.4c10-6.9,23.4-6.5,32.9,1.1l127.9,102.2L30.2,158.9z"/>
	<linearGradient id="SVGID_4_" gradientUnits="userSpaceOnUse" x1="991.4192" y1="174.2543" x2="991.4192" y2="79.181">
		<stop  offset="0" style="stop-color:#E8F0FE"/>
		<stop  offset="1" style="stop-color:#D5E4FD"/>
	</linearGradient>
	<path class="st7" d="M845.6,174.1l130.8-90.5c10-6.9,23.4-6.5,32.9,1.1l127.9,102.2L845.6,174.1z"/>
	<g>
		<path class="st8" d="M1076.2,155c-14.3-9.4-31.6-18.9-45.8-28.3c0-11.4,10.2-14.5,16-13.7c3.4,0.5,8.2,1.2,9.6,4.2
			c-1.2-3,0.1-6.7,3-8.4c2.9-1.6,6.8-1,8.9,1.5c2-5.7,8.1-9.8,14.4-9.7c6.2,0.1,12.1,4.5,13.9,10.3
			C1089.5,125.5,1082.8,140.6,1076.2,155z"/>
		<path class="st8" d="M36.1,96.9c8.8-4.7,20.2-6,29.3-1.6s14.9,13.7,14.5,23c2.9-3.4,8.5-7,13.2-6.5c4.7,0.5,9,3.4,11,7.4
			c-10.8,13.4-27.9,22.2-46.2,21.2c-11-0.6-36.3,4.9-40.1-4.4C14.1,127.2,9.3,111,36.1,96.9z"/>
		<path class="st8" d="M141.9,113.4l-5.4-1.8l4.2-1.7l-5.7-16.6c-0.4-1.3-2.3-1.2-2.7,0.1l-7.9,28.7h20.3L141.9,113.4z"/>
		<path class="st8" d="M111.9,110.2l5.4-1.8l-4.2-1.7l5.7-16.6c0.4-1.3,2.3-1.2,2.7,0.1l3.3,12.2l-4.3,1.7l5.2,1.7l3.6,13.2h-20.3
			L111.9,110.2z"/>
		<path class="st8" d="M55.8,136.4c0,0,60.9-35.5,133.4-35.5c87.9,0,138.1,56.3,389.5,56.3c227.5,0,272.3-51.7,359.4-51.7
			c88.7,0,167.4,51.7,167.4,51.7v43.6H61.6L55.8,136.4z"/>
		<path class="st8" d="M963.9,100.6l-5.4-1.8l4.2-1.7l-5.7-16.6c-0.4-1.3-2.3-1.2-2.7,0.1l-3.3,12.2l4.3,1.7l-5.2,1.7l-3.6,13.2
			h20.3L963.9,100.6z"/>
		<path class="st8" d="M931.6,106.8l5.4-1.8l-4.2-1.7l5.7-16.6c0.4-1.3,2.3-1.2,2.7,0.1l3.3,12.2l-4.3,1.7l5.2,1.7l3.6,13.2h-20.3
			L931.6,106.8z"/>
		<path class="st8" d="M1020.1,116.2l-5.4-1.8l4.2-1.7l-5.7-16.6c-0.4-1.3-2.3-1.2-2.7,0.1l-3.3,12.2l4.3,1.7l-5.2,1.7l-3.6,13.2
			h20.3L1020.1,116.2z"/>
		<path class="st8" d="M207.6,96.9l-5.4-1.8l4.2-1.7l-5.7-16.6c-0.4-1.3-2.3-1.2-2.7,0.1l-3.3,12.2l4.3,1.7l-5.2,1.7l-3.6,13.2h20.3
			L207.6,96.9z"/>
	</g>
	<g>
		<path class="st9" d="M677.8,158.7l-24.7,4.3l-16.8,4.3c-3.4,0.9-6.9,0.7-10.3-0.4l-6.9-2.3c-1-0.3-0.9-1.8,0.2-2l18.4-3.1
			c1.8-0.3,3.6-0.3,5.4-0.1l9.8,1.3l21.8-3.6L677.8,158.7z"/>
		<g>
			<g>
				<path class="st10" d="M674.8,151.1l0-1.9c0-0.8,0.2-1.6,0.5-2.4c0.3-0.8,0.7-1.5,1.2-2.1c0.3-0.3,0.5-0.6,0.8-0.8l0.8-0.6l3-2.5
					l1.5-1.2c0.5-0.4,0.9-0.7,1.2-1.1c0.6-0.8,1-1.8,1-3l0.1-3.9l0.2-7.8h1.5l0.2,7.8l0.1,3.9c0.1,1.4-0.3,3.1-1.2,4.3
					c-0.4,0.6-1.1,1.2-1.5,1.6l-1.4,1.3l-2.9,2.6l-0.7,0.6c-0.2,0.2-0.3,0.4-0.5,0.6c-0.3,0.4-0.5,0.8-0.7,1.3
					c-0.2,0.5-0.2,1-0.2,1.4l0,1.9H674.8z"/>
			</g>
			<g>
				<path class="st10" d="M669,138.6l2.3-1.9l1.1-0.9l0.6-0.5c0.1-0.1,0.3-0.2,0.4-0.4c0.2-0.3,0.4-0.6,0.5-1
					c0.1-0.3,0.1-0.9,0.2-1.4l0.3-2.9h0.7l0.3,2.9c0,0.5,0.1,0.9,0.1,1.6c0,0.6-0.2,1.2-0.5,1.8c-0.1,0.3-0.3,0.5-0.5,0.8l-0.5,0.6
					l-0.9,1.1l-1.9,2.3L669,138.6z"/>
			</g>
			<g>
				<path class="st10" d="M674.8,158.7c-0.2-3.3-0.2-6.7-0.2-10c0-0.9,0-1.4-0.1-2c-0.2-0.6-0.4-1.1-0.8-1.6c-0.3-0.4-1.1-1-1.6-1.6
					c-0.6-0.6-1.2-1.1-1.8-1.7l-1.8-1.8l-0.4-0.4c-0.2-0.2-0.4-0.4-0.5-0.5c-0.3-0.4-0.6-0.8-0.8-1.2c-0.5-0.9-0.7-1.8-0.8-2.8
					c0-0.2,0-0.5,0-0.7l0-0.6l0.1-1.3c0.1-3.3,0.2-6.7,0.1-10h1.2c-0.1,3.3,0,6.7,0.1,10l0.1,1.3l0,0.6c0,0.2,0,0.4,0.1,0.5
					c0.1,0.7,0.4,1.3,0.8,1.9c0.2,0.3,0.4,0.5,0.7,0.7c0.1,0.1,0.3,0.2,0.4,0.3l0.5,0.4l2,1.5c0.7,0.5,1.3,1,2,1.5
					c0.7,0.6,1.3,0.9,2.1,1.8c0.7,0.8,1.3,1.8,1.6,2.8c0.2,0.5,0.2,1,0.3,1.6c0,0.6,0,0.9,0,1.4c0,3.3,0,6.7-0.2,10H674.8z"/>
			</g>
			<g>
				<defs>
					<path id="XMLID_1_" d="M693.7,115.4C693.7,115.4,693.7,115.4,693.7,115.4c-0.1-0.1-0.2-0.1-0.3-0.2c-1.4-0.8-2.9-1.4-4.6-1.5
						c-0.6-0.2-1.1-0.4-1.5-0.8c-0.7-0.5-1-1.3-1.4-2.2c-0.6-4.2-4.1-7.5-8.4-7.7c-5-0.3-9.4,3.5-9.7,8.5c0,0,0,0,0,0
						c-0.6-0.2-1.2-0.4-1.9-0.4c-2.9,0-5.3,2.4-5.3,5.3c0,1.1,0.3,2.1,0.9,3c-3,1.1-5.2,3.9-5.2,7.3c0,4.3,3.5,7.8,7.8,7.8l16.5,1.1
						c1.2,0.1,2.5,0.2,3.7,0.3l0.2,0l0,0c0.7,0,1.3,0,2-0.1c0.4,0,0.8,0.1,1.2,0.1c6.2,0,11.2-5,11.2-11.2
						C698.9,120.9,696.9,117.4,693.7,115.4z"/>
				</defs>
				<use xlink:href="#XMLID_1_"  style="overflow:visible;fill:#4AAC4C;"/>
				<clipPath id="XMLID_3_">
					<use xlink:href="#XMLID_1_"  style="overflow:visible;"/>
				</clipPath>
				<path class="st11" d="M665.2,109.1l2.7,2.4l2.2,0.5c0.8,0.2,1.2,0.9,1.1,1.7v0c-0.2,0.8-0.9,1.2-1.7,1.1l0,0
					c-1.3-0.3-2.5,0.8-2.3,2.2l0,0c0.1,1,1,1.7,2,1.6l3-0.1c0.8,0,1.5-0.5,1.7-1.3l0.2-0.6c0.4-1.1,0.6-2.3,0.6-3.5v-1.5
					c0-0.8,0.7-1.5,1.5-1.4l0.1,0c0.8,0,1.4,0.7,1.4,1.4v1.5c0,1.7,0.8,3.4,2.2,4.4l1.4,1c0.6,0.4,0.7,1.2,0.4,1.8l0,0
					c-0.4,0.7-1.2,1-1.9,0.6l-1.3-0.6c-1.3-0.6-2.8-0.2-3.6,0.9v0c-0.7,1-0.7,2.3,0,3.2l0.7,1c0.5,0.7,1.3,1.2,2.1,1.3l5.4,0.5
					c0.5,0,1,0.2,1.5,0.5l2.5,1.7c0.7,0.5,1.5,0.7,2.3,0.6l0,0c1.3-0.1,2.4-0.9,2.9-2l0.2-0.4c0.4-0.9,1.3-1.6,2.4-1.8l0,0
					c0.9-0.1,1.6-0.8,1.8-1.6c0.9-4.3-0.8-9-3.1-13.7l10.3,1.7l1.9,27.1l-57.4-1.2v-17.6L665.2,109.1z"/>
				<path class="st11" d="M686.4,119.9C686.4,119.9,686.4,120,686.4,119.9c-1.4,0.9-1.4,2.8,0,3.6c1,0.6,2,1,2.7,1.3
					c0.7,0.2,1.4,0.1,2-0.3c0.1-0.1,0.2-0.2,0.3-0.2c1.2-0.9,1.1-2.9-0.3-3.6c-1.2-0.6-2.3-0.9-3.1-1.1
					C687.4,119.5,686.9,119.6,686.4,119.9z"/>
			</g>
		</g>
	</g>
</g>
<g id="Layer_3">
	<path class="st0" d="M315.7,175.3c0.9-2.9,1.8-5.7,2.9-8.5c1.5,0.6,3.2,0.8,5,0.4c2-0.5,3.6-1.6,4.7-3.1c0.2-0.3,0.1-0.6-0.2-0.8
		c-1.6-0.9-3.6-1.2-5.6-0.7c-1.1,0.2-2,0.7-2.9,1.3c1.2-3.2,2.4-6.5,3.8-9.6c0.2-0.5,0-1.1-0.5-1.3c-0.5-0.2-1.1,0-1.3,0.5
		c-2.4,5.8-4.6,11.8-6.6,17.8c-0.2-1.7-0.9-3.3-2-4.8c-1.5-1.9-3.6-3.2-5.9-3.6c-0.4-0.1-0.8,0.2-0.8,0.6c-0.1,2.3,0.6,4.6,2.1,6.6
		c1.5,1.9,3.6,3.1,5.8,3.6c-0.1,0.4-0.3,0.8-0.4,1.2c-7.9-1.5-15.7-3.2-23.7-3.4c-10.6-0.3-21.2,3.2-30.6,8c-1.6-0.8-3.3-1.5-4.9-2
		c-1.7-0.5-3.3-0.8-5-1c1.5-3.7,3-7.3,4.5-10.9c0.1-0.2,0-0.4-0.2-0.5c-0.2-0.1-0.5,0-0.6,0.2c-1.9,3.6-3.8,7.3-5.5,11.1
		c-2.9-0.2-5.8,0-8.6,0.5c0.3-1.8,0.7-3.7,1-5.5c0.8-4.6,1.3-9.2,1.7-13.9c0-0.2-0.1-0.4-0.3-0.4c-0.2,0-0.4,0.1-0.5,0.3
		c-0.8,4.6-1.7,9.1-2.6,13.7c-0.5,2.1-0.9,4.3-1.4,6.4c-0.9,0.2-1.7,0.5-2.5,0.8c0-0.8,0.1-1.7,0.1-2.5c0.1-4.7,0-9.3-0.2-14
		c0-0.2-0.2-0.4-0.4-0.4c-0.2,0-0.4,0.2-0.4,0.4c-0.2,4.6-0.4,9.3-0.7,13.9c-0.1,1.1-0.2,2.2-0.3,3.3c-3.8,1.4-7.4-0.5-11.2-1.7
		c-11.3-3.5-26.3-8-47.9-7c0.6-1.5,1.1-3,1.7-4.5c1.7-4.3,3.5-8.6,5.3-12.9c0.1-0.2,0-0.4-0.2-0.5c-0.2-0.1-0.5,0-0.6,0.2
		c-2.2,4.1-4.3,8.3-6.2,12.6c-0.8,1.8-1.6,3.5-2.3,5.3c-2.2,0.2-4.4,0.4-6.6,0.8c0.2-0.7,0.4-1.4,0.6-2l1-3.3
		c1.3-4.4,2.6-8.9,4.1-13.3c1.5-4.4,3.1-8.8,4.8-13.1c0.1-0.2,0.2-0.4,0.2-0.6c1.5,0.8,3.3,1.1,5.1,0.8c2-0.3,3.7-1.3,4.9-2.8
		c0.2-0.2,0.2-0.6-0.1-0.8c-1.6-1-3.5-1.4-5.5-1.1c-1.3,0.2-2.4,0.7-3.4,1.4c1.3-3.3,2.7-6.6,4.1-9.9c0.1-0.2,0-0.4-0.2-0.5
		c-0.2-0.1-0.5,0-0.6,0.2c-0.7,1.3-1.4,2.6-2,3.9c0-1.2-0.3-2.5-0.9-3.7c-0.9-1.8-2.4-3.1-4.1-3.8c-0.3-0.1-0.6,0-0.7,0.4
		c-0.4,1.8-0.3,3.8,0.6,5.6c0.9,1.7,2.3,3,4,3.7c-1.1,2.1-2.1,4.3-3,6.5c-0.8,1.7-1.5,3.4-2.2,5.1c-0.1-1.9-0.7-3.7-2-5.4
		c-1.5-2-3.5-3.2-5.8-3.7c-0.4-0.1-0.8,0.2-0.8,0.6c-0.1,2.3,0.5,4.6,2,6.6c1.5,2,3.5,3.2,5.8,3.7c0,0,0,0,0,0c-0.8,2-1.6,4-2.3,6
		c-1.6,4.4-3.2,8.8-4.5,13.3c-0.7,2.2-1.1,3.7-1.6,5.9c-6.4,1.4-12.1,2.6-18,5.5c-2.4,1.2-5.8,0.3-8.1-2.1
		c-0.5-10.3-1.1-15.7-1.7-26.1c4.2-4.8,8.4-9.6,12.5-14.4c-1.8-1.5-3.9-3.1-5.7-4.5c-2.5,2.3-5,4.7-7.5,7
		c-1.3-23.3-2.8-46.8-4.1-70.2c10.3-19.7,21.2-40,31.9-60c3.3-1.1,7.1-0.6,10.2,1.6c14.3,10.2,33.3,13.8,49.6,7.4
		c6.5-2.6,17.9-9.2,24.7-15.1H-27v200.8l1136,0.2h33V0h-33H836.5c10.3,8.1,26,14.8,49.4,12.8c7.2-0.6,13.7,3.9,15.9,10.7
		c3,9.4,9.6,17.9,17.7,23.6c11.7,8.2,26.7,10.9,40.8,8.6c2.2-0.4,4.5-0.8,6.7-1.4c1.2,13.1,2.3,26.1,3.5,39.2l-2.9-1.9l-2.3,3.5
		l5.8,4.3c1,11.7,2.1,23.4,3.1,35.1c-2.4-5.2-5.1-9.9-8-13.7c0.8,10.3,2.9,20.6,6,29.7c-4.3-5.8-8.8-10.8-13.3-14.6
		c3.5,10.8,8.5,21.3,14.1,29.9c-5.8,3.2-13.3,2.1-18.2-2.8c-1-1-2-1.9-3-2.8c-0.5-2-1-4-1.6-6c2.2-0.3,4.3-1.4,5.9-3.2
		c1.6-1.8,2.5-4.1,2.5-6.4c0-0.4-0.3-0.7-0.7-0.7c-2.3,0.3-4.4,1.4-6.1,3.3c-1.2,1.4-2,3-2.3,4.6c-0.5-1.6-0.9-3.2-1.4-4.7
		c-1.4-4.5-3-8.9-4.6-13.2c-0.1-0.2-0.3-0.3-0.5-0.2c-0.2,0.1-0.3,0.3-0.3,0.5c1,3.4,2,6.8,2.9,10.3c-0.9-0.8-1.9-1.4-3.1-1.7
		c-1.9-0.6-3.9-0.4-5.6,0.4c-0.3,0.1-0.4,0.5-0.2,0.8c1,1.6,2.6,2.8,4.5,3.3c1.7,0.5,3.5,0.4,5.1-0.2c0,0.2,0.1,0.4,0.1,0.5
		c0.9,3.4,1.7,6.8,2.4,10.2c-12.1-9.9-27-16.4-42.6-17.8c-20.5-1.8-41.6,4.8-57.5,17.8c-2.2,1.8-4.8,2.9-7.6,3.3
		c-2-3.9-4.2-7.8-6.4-11.6c-0.1-0.2-0.3-0.3-0.5-0.2c-0.2,0.1-0.3,0.4-0.2,0.6c1.9,3.8,3.6,7.5,5.3,11.3c-1.6,0-3.3-0.2-4.9-0.7
		c-10-3.1-20.6-2.8-30.6,1.2c-7.1,2.8-13.4,7.5-18.4,13.2c-4.5-0.5-9.1-0.6-13.6-0.4c-14.3,0.8-39.1,8.5-56.6,12.3
		C606.2,211,430.3,201,315.7,175.3z M116.1,31.3c1,18.9,2.1,37.7,3.1,56.6c-7.2-10.2-14.5-20.6-21.7-31.1l12.6-25.6
		C112.1,31.3,114.1,31.4,116.1,31.3z M88.5,35.9c2.4-4.7,7.8-7.3,12.9-6c2,0.5,4,0.9,6.1,1.1L95.4,53.9c-3.1-4.5-6.3-9-9.4-13.5
		C86.9,38.9,87.7,37.4,88.5,35.9z M58.8,139.2c-1.4,0.2-2.8,0.4-4.1,0.7c-6.2,1.2-12.2-2.8-13.5-9c-2.1-10-6.5-19.7-12.4-28.2
		c-4.2-6.1-1.6-14.5,5.2-17.2c9.9-4,19.1-9.5,27.4-16.3c0.7,21.1,1.4,42.1,2.2,63.2c-3.6-6.6-7.6-12.2-11.7-16.7
		C53.5,123.8,55.9,131.8,58.8,139.2z M71.2,137.2c0-0.2,0-0.3,0-0.5c0.1,0,0.2,0,0.3,0C71.4,136.9,71.3,137.1,71.2,137.2z M97,144.9
		c-5.7-2.5-11.9-4.3-18.2-5.3c5-8.5,8.5-16.8,10.3-24.2c-4,3.9-7.7,8.1-11.1,12.4c2.8-9.9,4.1-19.4,3.9-27.3
		c-4.6,7.9-8.4,16.5-11.1,24.7c-0.7-20.7-1.5-41.6-2.3-62.3c4.5-4.4,8.7-9.2,12.3-14.4C93.9,67,107,85.6,120.1,104.2
		c1.1,20.7,2.3,41.3,3.4,62C116.7,157,107.5,149.5,97,144.9z M127.5,29.5c2-0.5,4-1.2,6-2c5.4-2.1,10.4-5.3,14.8-9.2
		c-6.4,12.2-12.9,24.4-19.3,36.6C128.5,46.4,128,37.9,127.5,29.5z M1029.1,63.9c0.3,0.1,0.7,0.1,1,0.2c0.5,5.5,1,11,1.5,16.4
		c-5-7.2-10-14.3-15-21.5C1020.5,61.3,1024.7,62.9,1029.1,63.9z M1029.3,128.1c1.7,4.3,3.3,8.7,4.9,13.1c0.7,1.9,1.3,3.8,1.9,5.7
		c-0.6,0-1.1,0-1.7-0.1c-1-0.1-2-0.2-3-0.2c-1.4-2.4-2.9-4.8-4.4-7.1c-0.1-0.2-0.4-0.2-0.5-0.1c-0.2,0.1-0.3,0.4-0.2,0.6
		c1.2,2.2,2.3,4.4,3.5,6.6c-16.2-0.6-32.5,3.5-46.2,11.9C980.7,123.5,977,87,974,52.1c4.2-1.6,8.2-3.6,12.1-5.8
		c5.1-3,11.3-2.7,16.1,0.4c10,14.3,20.4,28.9,30.3,43.2c1.6,18.2,3.2,36.3,4.8,54.5c-0.5-1.2-1-2.5-1.5-3.7
		c-1.8-4.3-3.7-8.6-5.7-12.8c-0.1-0.2-0.3-0.3-0.5-0.2C1029.3,127.7,1029.2,127.9,1029.3,128.1z M1039.5,64.8
		c10.6-0.4,21-4.5,28.8-11.6c3.1,2.6,6.8,4.9,11.1,6.7c-6.2,7.8-12.4,15.8-18.7,23.8l-3.6-20.6h-2l3.5,23.3
		c-5.1,6.5-10.2,13.1-15.3,19.5C1042.1,92.1,1040.8,78.4,1039.5,64.8z M1090.5,107.9c-1.7-4.6-3.6-9.1-5.6-13.6l4.4,13.7
		c-8.4,1.1-16.1,4.5-23.3,9.7c-7.1,5.2-12.8,12.3-16.5,20.3c-0.4,0.9-0.9,1.7-1.4,2.4c0.2-1.2,0.5-2.3,0.7-3.5
		c1-4.5,2.1-9.1,3.2-13.6c0.1-0.2-0.1-0.4-0.3-0.5c-0.2-0.1-0.5,0-0.5,0.3c-1.5,4.4-2.9,8.9-4.1,13.4c-0.3,1-0.5,2-0.8,3
		c-0.7-7.9-1.4-15.8-2.2-23.7c14.1-17.8,28.2-35.7,42.3-53.5c0.3,0.1,0.5,0.2,0.8,0.2c1.3,15.1,2.7,30.1,4,45.2
		C1091.1,107.9,1090.8,107.9,1090.5,107.9z M1118.1,83.9c-15.4,11.9-19.5,23.1-19.5,23.1l-4.4-42.8c3.2,0.7,6.7,1.2,10.3,1.7
		c2.1,0.3,3.8,1.7,4.3,3.8c1.4,5.1,4.8,8.1,8.5,9.4C1119.4,79.8,1119.8,82.5,1118.1,83.9z"/>
	<path class="st0" d="M766.7,180.7l-3.9-19.1c-0.1-0.4-0.4-0.6-0.8-0.6l0,0c-0.4,0.1-0.7,0.4-0.6,0.8l3,21"/>
	<path class="st0" d="M762.1,180l-5.6-10.2c-0.1-0.2-0.4-0.3-0.6-0.2l0,0c-0.2,0.1-0.3,0.4-0.2,0.6l5.4,11.4"/>
	<path class="st0" d="M412.1,196.2l0-19.5c0-0.4,0.3-0.7,0.7-0.7l0,0c0.4,0,0.8,0.3,0.8,0.7l1.3,21.2"/>
	<path class="st0" d="M414.8,201.6l6.9-18.2c0.1-0.4,0.5-0.6,0.9-0.4l0,0c0.4,0.1,0.6,0.5,0.5,0.9l-6.3,20.3"/>
</g>
<g id="Layer_6">
</g>
</svg>
